<svg width="1088" height="721" viewBox="0 0 1088 721" fill="none" xmlns="http://www.w3.org/2000/svg">
<path d="M221.5 562C221.5 596.794 193.294 625 158.5 625C123.706 625 95.5 596.794 95.5 562C95.5 527.206 123.706 499 158.5 499C193.294 499 221.5 527.206 221.5 562ZM221.5 562L870.5 562.017M870.5 562.017C870.5 596.811 898.706 625.017 933.5 625.017C968.294 625.017 996.5 596.811 996.5 562.017C996.5 527.224 968.294 499.018 933.5 499.018C898.706 499.018 870.5 527.224 870.5 562.017ZM0.5 96.5H1087.5M0.5 360.5H1087.5M158.5 720.5V1.5M269.5 720.5V1.5M933.5 720.5V1.5M822.5 720.5V1.5M517.293 2L158.5 360.5L519 720.293M574.25 1.457L933.5 360.5L573.208 720.499M221.5 159.5C221.5 194.294 193.294 222.5 158.5 222.5C123.706 222.5 95.5 194.294 95.5 159.5C95.5 124.706 123.706 96.5 158.5 96.5C193.294 96.5 221.5 124.706 221.5 159.5ZM996.5 159.5C996.5 194.294 968.294 222.5 933.5 222.5C898.706 222.5 870.5 194.294 870.5 159.5C870.5 124.706 898.706 96.5 933.5 96.5C968.294 96.5 996.5 124.706 996.5 159.5Z" stroke="white" stroke-linecap="round"/>
</svg>
