<?xml version="1.0" encoding="UTF-8"?>
<svg id="Capa_1" data-name="Capa 1" xmlns="http://www.w3.org/2000/svg" viewBox="0 0 531.86 97.24">
  <defs>
    <style>
      .cls-1 {
        fill: #fff;
      }
    </style>
  </defs>
  <path class="cls-1" d="M0,0v97.24h100.54V0H0ZM85.73,74.57c-6.39,0-11.59-4.95-11.59-11.04v-17.68s.31-11.02.31-11.02l-20.67,49.22h-7.02s-20.57-49.09-20.57-49.09l.21,11v17.58c0,6.09-5.2,11.04-11.59,11.04v-7.55c2.23,0,4.04-1.56,4.04-3.49V15.02h7.55l23.87,57.41,23.93-57.41h7.45v47.05h.03v1.46c0,1.92,1.81,3.49,4.04,3.49v7.55Z"/>
  <g>
    <path class="cls-1" d="M235.2,30.2c4.96,0,8.71,1.41,11.8,4.45l.8.79,3.32-3.53-.73-.75c-3.7-3.82-8.97-5.84-15.25-5.84-12.84,0-22.16,9.03-22.16,21.47s9.5,21.47,22.1,21.47c6.04,0,11.4-1.94,15.1-5.47l.34-.32v-16.6h-5v14.39c-2.78,2.09-6.17,3.11-10.32,3.11-9.75,0-17.09-7.13-17.09-16.58s7.35-16.58,17.09-16.58Z"/>
    <polygon class="cls-1" points="287.69 58.4 262 25.6 257.9 25.6 257.9 67.96 263.02 67.96 263.02 35.14 288.76 67.96 292.8 67.96 292.8 25.6 287.69 25.6 287.69 58.4"/>
    <path class="cls-1" d="M167.5,64.54c-1.06,0-1.95-.88-2.24-2.08-.1-.23-.13-.54-.12-.68l.03-.47-.02-.02v-1.49h.01v-3.42s0-.48,0-.48l-.05-27.88h.01v-2.43h-1.58,0s-3.35,0-3.35,0l-16.55,37.39-16.55-37.39h-3.42,0s-1.55,0-1.55,0v2.44h0s0,27.87,0,27.87v5.57s.01.09.01.14c0,.03,0,.06,0,.09v.07c0,.11,0,.32-.06.51-.25,1.28-1.17,2.24-2.28,2.24-.02,0-.04,0-.07,0v3.43h1.1c2.06,0,3.7-.65,4.86-1.94,1.54-1.71,1.56-3.85,1.51-4.53v-23.21s14.97,33.73,14.97,33.73h2.92l14.99-33.86.04,16.66v6.68c-.04.68-.03,2.82,1.51,4.53,1.16,1.29,2.8,1.94,4.86,1.94h1.1v-3.42s-.03,0-.04,0Z"/>
    <path class="cls-1" d="M333.12,61.49c-.04.68-.03,2.82,1.51,4.53,1.16,1.29,2.8,1.94,4.86,1.94h1.1v-3.42s-.03,0-.04,0c-1.06,0-2.18-.86-2.47-2.06"/>
    <path class="cls-1" d="M304.78,61.47c.04.68.03,2.82-1.51,4.53-1.16,1.29-2.8,1.94-4.86,1.94h-1.1v-3.42s.03,0,.04,0c1.06,0,2.18-.86,2.47-2.06"/>
    <polygon class="cls-1" points="321.1 25.6 316.77 25.6 297.29 67.96 300.68 65.66 304 64.96 305.11 62.98 307.42 57.87 307.42 57.87 307.97 56.65 307.97 56.65 318.91 32.56 327.76 51.99 327.76 51.99 333.71 64.63 340.59 67.96 321.1 25.6"/>
    <path class="cls-1" d="M207.65,61.49c-.04.68-.03,2.82,1.51,4.53,1.16,1.29,2.8,1.94,4.86,1.94h1.1v-3.42s-.03,0-.04,0c-1.06,0-2.18-.86-2.47-2.06"/>
    <path class="cls-1" d="M179.31,61.47c.04.68.03,2.82-1.51,4.53-1.16,1.29-2.8,1.94-4.86,1.94h-1.1v-3.42s.03,0,.04,0c1.06,0,2.18-.86,2.47-2.06"/>
    <polygon class="cls-1" points="195.63 25.6 191.3 25.6 171.82 67.96 175.21 65.66 178.53 64.96 179.64 62.98 181.95 57.87 181.95 57.87 182.5 56.65 182.5 56.65 193.44 32.56 202.29 51.99 202.29 51.99 208.24 64.63 215.12 67.96 195.63 25.6"/>
    <g>
      <path class="cls-1" d="M390.13,49.93c0,9.53-4.28,14.36-12.73,14.36s-12.66-4.83-12.66-14.36v-24.33h-5.02v24.52c0,11.89,6.45,18.71,17.68,18.71s17.62-6.82,17.62-18.71v-24.52h-4.9v24.33Z"/>
      <path class="cls-1" d="M435.82,40.38c0-9.26-6.57-14.78-17.56-14.78h-16.11v36.58s0,.51-.06.71c-.24,1.27-1.15,2.21-2.24,2.21-.02,0-.04,0-.07,0v3.38h1.08c2.03,0,3.65-.64,4.79-1.91,1.46-1.62,1.52-4.37,1.52-4.37v-7.14h11.09c1.15,0,2.19-.05,3.26-.17l9.26,11.67,4.17-2.31-8.63-10.42c6.14-2.12,9.51-6.88,9.51-13.44ZM418.13,50.69h-10.97v-20.67h10.97c8.17,0,12.66,3.68,12.66,10.37s-4.5,10.31-12.66,10.31Z"/>
      <path class="cls-1" d="M491.36,31.88s-.05-2.75-1.52-4.37c-1.15-1.27-2.76-1.91-4.79-1.91h-1.08v3.38s.04,0,.07,0c1.09,0,2,.94,2.24,2.21.05.19.06.71.06.71"/>
      <path class="cls-1" d="M470.71,46.29c3.81-1.83,5.9-5.19,5.9-9.54,0-7.09-5.52-11.16-15.15-11.16h-18.53v42.87h19.74c10.43,0,16.17-4.11,16.17-11.58,0-5.41-2.88-9.15-8.14-10.59ZM447.96,29.83h13.21c6.72,0,10.43,2.63,10.43,7.4s-3.7,7.4-10.43,7.4h-13.21v-14.81ZM462.62,64.23h-14.66v-15.35h14.66c7.55,0,11.21,2.5,11.21,7.65s-3.67,7.71-11.21,7.71Z"/>
      <rect class="cls-1" x="486.34" y="31.88" width="5.02" height="36.59"/>
      <path class="cls-1" d="M517.24,44.97c-5.88-1.44-11.44-2.79-11.44-7.97,0-4.64,4.08-7.4,10.91-7.4,3.9,0,8.07,1.26,11.46,3.46l.27.18,1.72-4.07-.18-.13c-3.41-2.38-8.38-3.8-13.28-3.8-11.7,0-15.87,6.14-15.87,11.88,0,8.63,7.81,10.53,14.69,12.21,5.84,1.42,11.36,2.77,11.36,7.92,0,4.52-4.15,7.22-11.09,7.22-5.23,0-10.64-1.99-13.77-5.06l-.27-.26-2.01,3.95.13.14c3.22,3.34,9.61,5.59,15.92,5.59,11.84,0,16.05-6.11,16.05-11.82,0-8.47-7.77-10.37-14.62-12.04Z"/>
      <path class="cls-1" d="M436.57,65.09c-.64,0-1.22-.33-1.64-.86h0s-1.36-1.63-1.36-1.63c-.49-.12-1.05-.22-1.05-.22l-3.28-.2s.05,2.75,1.52,4.37c1.15,1.27,2.76,1.91,4.79,1.91h1.08v-3.38s-.04,0-.07,0Z"/>
    </g>
  </g>
</svg>